<svg xmlns="http://www.w3.org/2000/svg" width="261.728" height="235.452" viewBox="0 0 245.37069 220.73612"><path fill="#fff" d="M32 1.36C21.3 7.73.2 31.95 0 38.3v10.5c0 13.34 12.46 25.06 23.77 25.06 13.6 0 24.9-11.26 24.9-24.62 0 13.36 10.94 24.62 24.52 24.62S97.35 62.6 97.35 49.24c0 13.36 11.62 24.62 25.2 24.62h.25c13.6 0 25.22-11.26 25.22-24.62 0 13.36 10.58 24.62 24.16 24.62 13.6 0 24.52-11.26 24.52-24.62 0 13.36 11.32 24.62 24.9 24.62 11.3 0 23.77-11.7 23.77-25.05V38.3c-.2-6.36-21.3-30.58-32-36.93C180.13.2 157.08 0 122.7 0c-34.37 0-81.22.54-90.7 1.36zm65.18 66.22a28.02 28.02 0 0 1-4.78 6.16c-5.12 5-12.15 8.12-19.9 8.12a28.48 28.48 0 0 1-19.95-8.13C50.7 71.9 49.28 69.97 48 67.7h-.02c-1.3 2.27-3.1 4.22-4.95 6.04a28.5 28.5 0 0 1-19.95 8.12c-.94 0-1.9-.26-2.7-.53-1.1 11.38-1.55 22.24-1.7 30.17v.04c-.03 4.03-.05 7.34-.07 11.93.22 23.86-2.35 77.34 10.53 90.48 19.96 4.65 56.7 6.77 93.55 6.78 36.86 0 73.6-2.13 93.56-6.78 12.9-13.14 10.3-66.62 10.52-90.48-.02-4.6-.04-7.9-.06-11.93v-.04c-.16-7.93-.62-18.8-1.7-30.17-.8.27-1.77.53-2.7.53a28.5 28.5 0 0 1-19.95-8.12c-1.87-1.82-3.67-3.77-4.96-6.04h-.02c-1.3 2.27-2.7 4.2-4.56 6.03a28.48 28.48 0 0 1-19.94 8.13c-7.75 0-14.78-3.1-19.9-8.13a28.02 28.02 0 0 1-4.8-6.15 28 28 0 0 1-4.73 6.15 28.5 28.5 0 0 1-19.95 8.13c-.27 0-.54-.02-.8-.02-.28 0-.55.02-.83.02a28.5 28.5 0 0 1-19.95-8.13 28 28 0 0 1-4.73-6.15zM76.7 94.08c8.12.02 15.33 0 24.26 9.75 7.03-.74 14.37-1.1 21.72-1.1 7.36 0 14.7.36 21.73 1.1 8.94-9.75 16.15-9.73 24.26-9.75h.02c3.83 0 19.16 0 29.84 30L210 165.24c8.5 30.63-2.72 31.38-16.73 31.4C172.5 195.87 161 180.8 161 165.7c-11.5 1.9-24.9 2.84-38.3 2.84h-.02c-13.4 0-26.82-.95-38.32-2.83 0 15.1-11.5 30.17-32.26 30.94-14-.02-25.23-.77-16.73-31.4l11.48-41.16c10.68-30 26.02-30 29.85-30zm45.98 23.57c-.02.03-21.86 20.1-25.8 27.22l14.32-.57v12.48c0 .58 5.74.34 11.48.08 5.75.26 11.5.5 11.5-.08V144.3l14.3.57c-3.93-7.13-25.8-27.2-25.8-27.2v-.02z" color="#000"/></svg>